#!OML:ASF X:\für Bonn\!DataBase\2005_08_12_Daniel\c3d\Daniel.ASF
:FULLY-SPECIFIED
:DEGREES
76
root 0.383665 15.3855 -1.22504 169.017 0.0120426 -178.03
lowerback 58.3163 -1.68323 15.9344
upperback 13.5138 -1.66289 -0.475937
thorax -5.38074 -3.73084 -6.4085
lowerneck 4.94181 -3.12449 -4.85122
upperneck 7.81541 -4.89524 1.68293
head 1.78455 -2.71212 1.33462
rclavicle 1.27222e-014 -4.45278e-014
rhumerus 20.5305 -17.4845 -87.6168
rradius 12.4376
rwrist 37.0151
rhand -31.169 13.6907
rfingers 7.12502
rthumb -4.44633 -16.2427
lclavicle 1.27222e-014 -4.45278e-014
lhumerus -29.9909 -1.61194 90.5156
lradius 70.2657
lwrist 5.21329
lhand -9.05934 -7.4495
lfingers 7.12502
lthumb 16.8893 21.8361
rfemur -33.9762 -9.07758 22.3522
rtibia 66.8953
rfoot -22.8187 7.06963
rtoes -7.74342
lfemur -38.9755 7.60987 -17.8329
ltibia 73.8908
lfoot -25.7861 -2.21851
ltoes -10.9763
77
root 0.375055 15.2755 -1.24754 169.04 -0.0338435 -178.106
lowerback 58.9438 -1.80336 16.1271
upperback 13.4399 -1.66138 -0.526515
thorax -5.46947 -3.75316 -6.50674
lowerneck 4.83629 -3.25151 -4.72549
upperneck 7.75487 -5.04259 1.62631
head 1.7827 -2.77755 1.2925
rclavicle -1.59028e-015 -1.47101e-014
rhumerus 21.1787 -17.8135 -87.5748
rradius 12.3806
rwrist 37.4035
rhand -31.3658 13.6366
rfingers 7.12502
rthumb -4.63635 -16.2927
lclavicle -1.59028e-015 -1.47101e-014
lhumerus -30.1667 -1.93516 90.5244
lradius 71.3444
lwrist 4.9746
lhand -8.97955 -7.49797
lfingers 7.12502
lthumb 16.9661 21.781
rfemur -34.9468 -9.48863 22.2078
rtibia 68.5457
rfoot -23.442 7.5217
rtoes -7.93892
lfemur -39.7654 7.69046 -18.0129
ltibia 75.2355
lfoot -26.2527 -2.1806
ltoes -10.5784
78
root 0.365665 15.1609 -1.27015 169.051 -0.0781124 -178.182
lowerback 59.5597 -1.92979 16.3178
upperback 13.3576 -1.66104 -0.578881
thorax -5.56394 -3.77483 -6.6054
lowerneck 4.73692 -3.3661 -4.64253
upperneck 7.74209 -5.18125 1.60023
head 1.79709 -2.84129 1.26728
rclavicle 4.21423e-014 -3.97569e-015
rhumerus 21.8299 -18.2674 -87.5877
rradius 12.2771
rwrist 37.9747
rhand -31.5366 13.5809
rfingers 7.12502
rthumb -4.80125 -16.3447
lclavicle 4.21423e-014 -3.97569e-015
lhumerus -30.357 -2.28954 90.5149
lradius 72.4719
lwrist 4.72271
lhand -9.03095 -7.57725
lfingers 7.12502
lthumb 16.9166 21.706
rfemur -35.9428 -9.87304 22.0525
rtibia 70.2499
rfoot -24.039 7.98797
rtoes -7.89735
lfemur -40.5582 7.78083 -18.1734
ltibia 76.6093
lfoot -26.7272 -2.22978
ltoes -9.9752
79
root 0.355844 15.0446 -1.29265 169.065 -0.143615 -178.271
lowerback 60.1558 -2.07993 16.5379
upperback 13.2741 -1.66415 -0.658021
thorax -5.65442 -3.79101 -6.74578
lowerneck 4.67435 -3.50392 -4.48848
upperneck 7.70683 -5.34898 1.5536
head 1.79566 -2.91765 1.22393
rclavicle 6.36111e-015 8.74653e-015
rhumerus 22.4697 -18.8776 -87.6695
rradius 12.174
rwrist 38.6164
rhand -31.6904 13.5592
rfingers 7.12502
rthumb -4.94978 -16.363
lclavicle 6.36111e-015 8.74653e-015
lhumerus -30.5244 -2.63984 90.5082
lradius 73.5988
lwrist 4.44691
lhand -8.99689 -7.69672
lfingers 7.12502
lthumb 16.9494 21.5837
rfemur -36.973 -10.2702 21.884
rtibia 71.9884
rfoot -24.6062 8.39241
rtoes -8.04128
lfemur -41.3625 7.8784 -18.3513
ltibia 77.9887
lfoot -27.2171 -2.30546
ltoes -9.64398
80
root 0.345384 14.9247 -1.31541 169.062 -0.223619 -178.401
lowerback 60.7531 -2.22272 16.7143
upperback 13.1805 -1.67505 -0.72815
thorax -5.75826 -3.81259 -6.85364
lowerneck 4.61307 -3.63961 -4.35021
upperneck 7.68167 -5.51574 1.49955
head 1.79717 -2.99472 1.18089
rclavicle 2.22639e-014 3.49861e-014
rhumerus 23.1036 -19.5572 -87.7724
rradius 12.0216
rwrist 39.4129
rhand -31.9067 13.5282
rfingers 7.12502
rthumb -5.15869 -16.389
lclavicle 2.22639e-014 3.49861e-014
lhumerus -30.7238 -2.96243 90.5177
lradius 74.7476
lwrist 4.10095
lhand -9.04557 -7.79378
lfingers 7.12502
lthumb 16.9026 21.4907
rfemur -38.0042 -10.6777 21.6672
rtibia 73.7539
rfoot -25.1351 8.7771
rtoes -8.21674
lfemur -42.1634 7.98233 -18.5656
ltibia 79.3895
lfoot -27.6948 -2.45986
ltoes -9.12955
81
root 0.334825 14.8021 -1.3394 169.055 -0.325459 -178.563
lowerback 61.3097 -2.36275 16.8809
upperback 13.107 -1.69526 -0.793503
thorax -5.8373 -3.83678 -6.95161
lowerneck 4.53784 -3.77326 -4.23997
upperneck 7.67855 -5.68208 1.45393
head 1.80915 -3.07275 1.14483
rclavicle -4.85035e-014 -9.54166e-015
rhumerus 23.7065 -20.0912 -87.7687
rradius 11.8552
rwrist 39.9792
rhand -32.0746 13.4909
rfingers 7.12502
rthumb -5.32076 -16.4223
lclavicle -4.85035e-014 -9.54166e-015
lhumerus -30.8956 -3.28106 90.5552
lradius 75.935
lwrist 3.75945
lhand -9.03949 -7.89469
lfingers 7.12502
lthumb 16.9084 21.3893
rfemur -39.0437 -11.0979 21.4138
rtibia 75.532
rfoot -25.6417 9.12051
rtoes -8.38079
lfemur -42.9932 8.1098 -18.8176
ltibia 80.814
lfoot -28.1797 -2.63486
ltoes -8.54539
82
root 0.324118 14.678 -1.36398 169.045 -0.427859 -178.728
lowerback 61.8601 -2.51876 17.0801
upperback 13.0209 -1.70176 -0.872533
thorax -5.92296 -3.84976 -7.0837
lowerneck 4.47367 -3.92113 -4.17768
upperneck 7.70536 -5.87449 1.44456
head 1.83258 -3.16555 1.12814
rclavicle 1.03368e-014 0
rhumerus 24.2283 -20.5963 -87.6616
rradius 11.6906
rwrist 40.3846
rhand -32.2139 13.5326
rfingers 7.12502
rthumb -5.45522 -16.3772
lclavicle 1.03368e-014 0
lhumerus -31.001 -3.67453 90.5976
lradius 77.0366
lwrist 3.36175
lhand -9.13418 -8.03321
lfingers 7.12502
lthumb 16.8173 21.2585
rfemur -40.0862 -11.5343 21.1596
rtibia 77.3164
rfoot -26.108 9.43386
rtoes -8.61567
lfemur -43.8358 8.24691 -19.0697
ltibia 82.251
lfoot -28.6768 -2.84167
ltoes -8.22126
83
root 0.314189 14.5519 -1.3889 169.011 -0.530866 -178.907
lowerback 62.3659 -2.68834 17.3333
upperback 12.9659 -1.70359 -0.981746
thorax -5.96489 -3.85265 -7.27865
lowerneck 4.5171 -4.08427 -4.16481
upperneck 7.63677 -6.09426 1.53936
head 1.81328 -3.26998 1.15619
rclavicle -8.74653e-015 3.10104e-014
rhumerus 24.8191 -21.4105 -87.7108
rradius 11.4362
rwrist 41.0333
rhand -32.4136 13.5616
rfingers 7.12502
rthumb -5.64808 -16.3431
lclavicle -8.74653e-015 3.10104e-014
lhumerus -31.0271 -4.13409 90.6256
lradius 78.0857
lwrist 2.9589
lhand -9.18909 -8.14101
lfingers 7.12502
lthumb 16.7644 21.1552
rfemur -41.1036 -11.9271 20.8661
rtibia 79.0959
rfoot -26.489 9.80798
rtoes -8.39294
lfemur -44.6708 8.41745 -19.3258
ltibia 83.701
lfoot -29.1841 -3.07762
ltoes -8.01884
